<svg width="139" height="73" viewBox="0 0 139 73" fill="none" xmlns="http://www.w3.org/2000/svg">
<line x1="27.9998" y1="52.5" x2="127" y2="52.5" stroke="black"/>
<path d="M28.9999 55L30.294 59.8296" stroke="black"/>
<path d="M127 52.603L137.611 13.0001" stroke="black"/>
<path d="M105 52.3486L115.611 12.7457" stroke="black"/>
<path d="M115.888 12.8975L126.5 52.5004" stroke="black"/>
<path d="M50.5292 51.2256C48.1874 51.2256 46.4328 50.7458 45.2655 49.7861C44.0982 48.8265 43.5145 47.2259 43.5145 44.9844V39.7852C43.5145 39.599 43.5432 39.4271 43.6005 39.2695C43.6578 39.112 43.7902 39.0332 43.9979 39.0332C44.177 39.0332 44.2915 39.112 44.3417 39.2695C44.399 39.4271 44.4276 39.599 44.4276 39.7852V44.9844C44.4276 46.2305 44.6102 47.2653 44.9755 48.0889C45.3407 48.9053 45.9673 49.514 46.8553 49.915C47.7434 50.3161 48.968 50.5166 50.5292 50.5166C52.0904 50.5166 53.3114 50.3161 54.1923 49.915C55.0803 49.514 55.7033 48.9053 56.0614 48.0889C56.4266 47.2653 56.6093 46.2305 56.6093 44.9844V39.7852C56.6093 39.599 56.6379 39.4271 56.6952 39.2695C56.7525 39.112 56.8706 39.0332 57.0497 39.0332C57.2574 39.0332 57.3863 39.112 57.4364 39.2695C57.4937 39.4271 57.5223 39.599 57.5223 39.7852V44.9844C57.5223 47.2259 56.9423 48.8265 55.7821 49.7861C54.6219 50.7458 52.871 51.2256 50.5292 51.2256Z" fill="black"/>
<path d="M62.1913 51C61.9836 51 61.8511 50.9284 61.7938 50.7852C61.7437 50.6348 61.7186 50.4629 61.7186 50.2695V39.7422C61.7186 39.5345 61.7473 39.3662 61.8046 39.2373C61.869 39.1012 62.0051 39.0332 62.2128 39.0332C62.3846 39.0332 62.4992 39.1012 62.5565 39.2373C62.6138 39.3734 62.6425 39.5345 62.6425 39.7207V45.3711L71.2469 39.1943C71.3902 39.0869 71.5334 39.0332 71.6766 39.0332C71.913 39.0332 72.0311 39.1478 72.0311 39.377C72.0311 39.5345 71.9524 39.6706 71.7948 39.7852L65.5428 44.3291L71.8055 50.1729C71.9488 50.3018 72.0204 50.445 72.0204 50.6025C72.0204 50.71 71.9846 50.8031 71.913 50.8818C71.8413 50.9606 71.7518 51 71.6444 51C71.5298 51 71.4117 50.9463 71.2899 50.8389L64.8661 44.7695L62.6425 46.2305V50.248C62.6425 50.4557 62.6102 50.6348 62.5458 50.7852C62.4813 50.9284 62.3632 51 62.1913 51Z" fill="black"/>
<path d="M74.9882 51.1074C74.7805 51.1074 74.6659 51.0143 74.6444 50.8281C74.6229 50.6348 74.6623 50.4486 74.7626 50.2695L80.6815 39.5811C80.7961 39.3734 80.8856 39.2301 80.9501 39.1514C81.0145 39.0726 81.1112 39.0332 81.2401 39.0332C81.3404 39.0332 81.4299 39.0726 81.5087 39.1514C81.5874 39.223 81.6841 39.3662 81.7987 39.5811L87.7284 50.2803C87.8072 50.4163 87.8466 50.556 87.8466 50.6992C87.8466 50.9714 87.7248 51.1074 87.4813 51.1074C87.3882 51.1074 87.2915 51.0716 87.1913 51C87.091 50.9355 86.9908 50.8138 86.8905 50.6348L85.0643 47.3262H77.4159L75.5682 50.6777C75.4178 50.9642 75.2245 51.1074 74.9882 51.1074ZM77.7274 46.6924H84.7528L81.2401 40.2793L77.7274 46.6924Z" fill="black"/>
<path d="M89.9882 51.1074C89.7805 51.1074 89.6659 51.0143 89.6444 50.8281C89.6229 50.6348 89.6623 50.4486 89.7626 50.2695L95.6815 39.5811C95.7961 39.3734 95.8856 39.2301 95.9501 39.1514C96.0145 39.0726 96.1112 39.0332 96.2401 39.0332C96.3404 39.0332 96.4299 39.0726 96.5087 39.1514C96.5874 39.223 96.6841 39.3662 96.7987 39.5811L102.728 50.2803C102.807 50.4163 102.847 50.556 102.847 50.6992C102.847 50.9714 102.725 51.1074 102.481 51.1074C102.388 51.1074 102.292 51.0716 102.191 51C102.091 50.9355 101.991 50.8138 101.891 50.6348L100.064 47.3262H92.4159L90.5682 50.6777C90.4178 50.9642 90.2245 51.1074 89.9882 51.1074ZM92.7274 46.6924H99.7528L96.2401 40.2793L92.7274 46.6924Z" fill="black"/>
<line x1="29.9973" y1="60.0054" x2="125.003" y2="60.0054" stroke="black"/>
<circle cx="39" cy="68" r="4.5" stroke="black"/>
<path d="M44.2002 64C46.4092 64.0002 48.2002 65.791 48.2002 68C48.2002 70.209 46.4092 71.9998 44.2002 72C43.7821 72 43.3788 71.9354 43 71.8164C43.5458 71.6449 44.0399 71.3586 44.457 70.9873C45.9934 70.8568 47.2002 69.5702 47.2002 68C47.2002 66.4298 45.9935 65.1422 44.457 65.0117C44.04 64.6406 43.5457 64.354 43 64.1826C43.3787 64.0637 43.7822 64 44.2002 64Z" fill="black"/>
<path d="M121.2 64C123.409 64.0002 125.2 65.791 125.2 68C125.2 70.209 123.409 71.9998 121.2 72C120.782 72 120.379 71.9354 120 71.8164C120.546 71.6449 121.04 71.3586 121.457 70.9873C122.993 70.8568 124.2 69.5702 124.2 68C124.2 66.4298 122.993 65.1422 121.457 65.0117C121.04 64.6406 120.546 64.354 120 64.1826C120.379 64.0637 120.782 64 121.2 64Z" fill="black"/>
<circle cx="116" cy="68" r="4.5" stroke="black"/>
<line x1="14.5659" y1="0.555649" x2="28.4" y2="52.1853" stroke="black"/>
<path d="M29 52.5C46 47 49.6 16.9 18 12.5" stroke="black"/>
<line y1="0.5" x2="15.0333" y2="0.5" stroke="black"/>
</svg>
